<svg width="190" height="155" viewBox="0 0 190 155" fill="none" xmlns="http://www.w3.org/2000/svg">
<rect x="38.2695" y="0.686708" width="175.56" height="73.1049" rx="4.5" transform="rotate(30.9372 38.2695 0.686708)" fill="#D9D9D9" stroke="black"/>
<path d="M54.6779 66.9594L54.1516 67.0912L52.1775 65.9079L52.0456 65.3817L53.0296 59.263L52.5688 58.5396L43.685 53.215L42.8298 53.1496L37.8975 56.9017L37.3713 57.0336L35.3971 55.8503L35.2653 55.3241L36.6457 53.0209L56.5721 37.6833L57.0983 37.5514L60.0596 39.3263L60.1914 39.8525L56.0583 64.6562L54.6779 66.9594ZM53.8828 54.8549L55.7853 43.4729L55.4563 43.2757L46.3152 50.3191L46.447 50.8454L53.3566 54.9867L53.8828 54.8549ZM78.8206 72.9325C77.4402 75.2357 75.7873 76.5258 73.8621 76.803C71.95 77.0583 69.9849 76.5812 67.9669 75.3716L58.0961 69.4554L57.9643 68.9291L71.3744 46.5553L71.9007 46.4235L81.1134 51.9453C83.1095 53.1417 84.4523 54.6323 85.1417 56.417C85.853 58.2148 85.5644 60.1886 84.276 62.3382C83.6187 63.435 82.7616 64.2182 81.7048 64.688C80.67 65.1709 79.6197 65.3315 78.5539 65.1697L78.3566 65.4987C79.2211 66.4939 79.7194 67.6274 79.8516 68.8992C80.0057 70.1842 79.662 71.5286 78.8206 72.9325ZM80.9857 60.3661C81.7483 59.0939 81.9386 58.0303 81.5566 57.1752C81.1747 56.3201 80.2159 55.4325 78.6805 54.5122L73.4161 51.3568L72.8898 51.4886L69.3401 57.4111L69.4719 57.9374L75.0653 61.2899C76.4473 62.1182 77.5834 62.4861 78.4736 62.3935C79.399 62.2922 80.2364 61.6164 80.9857 60.3661ZM75.5303 70.9604C76.4112 69.4907 76.6716 68.2604 76.3115 67.2694C75.9645 66.2564 74.9575 65.2503 73.2905 64.2511L67.697 60.8986L67.1708 61.0304L63.0294 67.94L63.1612 68.4662L69.4127 72.2132C70.7508 73.0152 71.9022 73.3326 72.867 73.1655C73.8669 72.9896 74.7547 72.2546 75.5303 70.9604ZM82.1477 79.8908C81.5321 76.5404 82.2827 73.0993 84.3994 69.5678C86.5161 66.0362 89.1904 63.7632 92.4222 62.7485C95.6672 61.712 98.9788 62.206 102.357 64.2307C105.735 66.2554 107.732 68.943 108.347 72.2934C108.976 75.622 108.232 79.052 106.115 82.5835C103.998 86.1151 101.318 88.3992 98.0726 89.4357C94.8407 90.4503 91.5358 89.9453 88.1578 87.9206C84.7798 85.896 82.7764 83.2194 82.1477 79.8908ZM93.5291 66.2742C91.2532 67.0866 89.3068 68.8419 87.6896 71.5399C86.0725 74.2379 85.4356 76.7929 85.7788 79.205C86.1352 81.5951 87.5198 83.5132 89.9326 84.9594C92.3455 86.4056 94.6899 86.7225 96.9657 85.91C99.2547 85.0757 101.208 83.3095 102.825 80.6115C104.442 77.9134 105.072 75.3694 104.716 72.9793C104.373 70.5673 102.995 68.6381 100.582 67.192C98.169 65.7458 95.8181 65.4398 93.5291 66.2742ZM134.544 84.417L125.867 98.8942C124.276 101.548 122.23 103.17 119.731 103.759C117.266 104.339 114.641 103.794 111.855 102.124C109.07 100.455 107.341 98.3896 106.668 95.9295C106.031 93.4606 106.508 90.8991 108.099 88.2449L116.776 73.7678L117.302 73.6359L119.935 75.2136L120.067 75.7398L111.389 90.217C110.351 91.9499 109.99 93.5969 110.306 95.1581C110.636 96.6974 111.744 98.0324 113.63 99.163C115.517 100.294 117.216 100.642 118.729 100.207C120.255 99.7498 121.538 98.655 122.576 96.9221L131.253 82.4449L131.78 82.3131L134.412 83.8908L134.544 84.417ZM154.885 99.7398L154.359 99.8716L147.45 95.7302L146.923 95.8621L135.288 115.275L134.762 115.406L132.13 113.829L131.998 113.303L143.633 93.89L143.501 93.3637L136.592 89.2224L136.46 88.6961L137.84 86.3929L138.367 86.2611L156.134 96.9104L156.266 97.4366L154.885 99.7398Z" fill="black"/>
</svg>
