<?xml version="1.0" encoding="UTF-8"?>
<svg id="Layer_1" xmlns="http://www.w3.org/2000/svg" viewBox="0 0 301.5 200">
  <defs>
    <style>
      .cls-1 {
        fill: #171717;
      }
    </style>
  </defs>
  <path class="cls-1" d="M187.24,89.71l2.62.28c.72.08,1.43-.23,1.86-.81h0c.45-.6.54-1.39.24-2.08l-.99-2.24c-.3-.68-.21-1.48.24-2.08l46.05-61.02c.68-.91,1.97-1.09,2.88-.41l60.28,45.32c.91.69.96,1.88.27,2.79l-25.58,33.9c-.52.68-1.4.97-2.22.73l-15.03-4.42c-.83-.24-1.72.05-2.23.75l-2.29,3.08c-.47.63-.54,1.48-.17,2.18l7.86,15.03c.37.71-.02,1.34-.51,1.98l-18.07,23.95c-.48.62-1.26.92-2.02.77l-16.31-3.3c-.78-.16-1.58.15-2.05.78l-2.11,2.8c-.51.67-.55,1.58-.12,2.3l8.2,13.62c.43.72.39,1.63-.12,2.3l-25.24,33.44c-.69.91-1.98,1.09-2.88.4l-60.06-45.33c-.91-.69-1.09-1.98-.4-2.88l46.07-61.04c.44-.58,1.14-.88,1.86-.81Z"/>
  <path class="cls-1" d="M64.85,25.31l-5.37,65.29c-.07.86.45,1.65,1.26,1.92l76.28,25.4c.82.27,1.72-.06,2.17-.8l49.62-83.46c.65-1.07.07-2.46-1.14-2.76l-30.37-7.47c-.79-.19-1.62.15-2.03.85l-31.39,52.48c-.44.73-1.31,1.07-2.12.82l-25.62-7.43c-.86-.26-1.41-1.09-1.31-1.97l4.06-41.78c.12-1.08-.72-2.03-1.8-2.05l-30.35-.72c-.98-.02-1.8.72-1.89,1.69Z"/>
  <path class="cls-1" d="M285.07,110.79l-54.37,86.02c-.93,1.46.13,3.37,1.86,3.37h66.55c1.34.01,2.37-1.17,2.18-2.49l-12.19-86.03c-.29-2.03-2.94-2.6-4.04-.87Z"/>
  <path class="cls-1" d="M280.55,1.6l-3.42,19.8c-.18,1.06.52,2.08,1.58,2.28l19.8,3.79c1.2.23,2.32-.67,2.35-1.89l.5-19.67c.02-.94-.62-1.76-1.53-1.98L282.94,0c-1.11-.26-2.2.47-2.4,1.59Z"/>
  <path class="cls-1" d="M120.33,129.36l-73.6-25.76c-.63-.27-1.07-.85-1.17-1.54L32.83,1.66c-.16-1.15-1.27-1.91-2.4-1.65L1.93,6.14c-.97.22-1.62,1.13-1.53,2.12l18.34,190.1c.1,1.01.95,1.79,1.97,1.79l114.93.02c1.31,0,2.26-1.26,1.9-2.52l-16.1-67.02c-.16-.57-.57-1.04-1.12-1.27ZM61.3,169.51l-2.42-21.46c-.17-1.47,1.12-2.69,2.57-2.45l26.84,4.39c1,.16,1.76.98,1.86,1.98l1.87,18.92c.14,1.37-1,2.54-2.38,2.44l-26.29-1.86c-1.07-.08-1.94-.91-2.06-1.97Z"/>
</svg>