<svg width="250" height="103" viewBox="0 0 250 103" fill="none" xmlns="http://www.w3.org/2000/svg">
<rect x="0.438396" y="0.554807" width="240.999" height="73.1049" rx="4.5" transform="matrix(0.993201 0.116412 -0.116409 0.993201 9.33319 0.483987)" fill="#D9D9D9" stroke="black"/>
<path d="M50.0251 55.3246C46.1135 54.8662 43.1875 53.2487 41.2471 50.4721C39.3096 47.6702 38.5806 44.2246 39.0599 40.1353C39.5391 36.0459 41.0437 32.875 43.5736 30.6224C46.1065 28.3444 49.3287 27.4347 53.2402 27.8932C56.1865 28.2385 58.5117 29.2706 60.2156 30.9895C61.9225 32.6829 62.8407 34.7346 62.9702 37.1444L62.5446 37.4807L59.4966 37.1235L59.1603 36.6978C58.9177 35.2532 58.2598 34.056 57.1866 33.1063C56.1165 32.1312 54.6671 31.5364 52.8383 31.3221C50.0443 30.9946 47.7752 31.6813 46.031 33.3823C44.2897 35.0578 43.236 37.4577 42.8698 40.5818C42.5036 43.706 42.9724 46.2971 44.276 48.3553C45.5827 50.3881 47.633 51.5682 50.4269 51.8957C54.0591 52.3214 56.5385 50.9384 57.8653 47.7466L58.291 47.4103L61.3389 47.7675L61.6753 48.1932C60.9831 50.5839 59.6303 52.4595 57.617 53.8199C55.629 55.1833 53.0984 55.6849 50.0251 55.3246ZM67.552 53.5553C65.6145 50.7534 64.8854 47.3078 65.3647 43.2184C65.844 39.1291 67.3486 35.9582 69.8785 33.7056C72.4113 31.4276 75.6335 30.5179 79.5451 30.9763C83.4566 31.4348 86.3811 33.065 88.3185 35.8669C90.259 38.6435 90.9896 42.0764 90.5103 46.1657C90.031 50.255 88.5249 53.4387 85.992 55.7167C83.4622 57.9692 80.2415 58.8663 76.3299 58.4078C72.4184 57.9494 69.4924 56.3319 67.552 53.5553ZM72.3358 36.4655C70.5946 38.141 69.5408 40.5408 69.1747 43.665C68.8085 46.7891 69.2772 49.3803 70.5809 51.4385C71.8876 53.4713 73.9379 54.6514 76.7318 54.9789C79.5258 55.3064 81.7934 54.6323 83.5347 52.9568C85.2789 51.2558 86.3342 48.8433 86.7003 45.7192C87.0665 42.595 86.5963 40.0165 85.2896 37.9838C83.9859 35.9256 81.9371 34.7327 79.1432 34.4053C76.3492 34.0778 74.0801 34.7645 72.3358 36.4655ZM115.289 62.2018L114.864 62.5381L111.435 62.1362L110.718 61.6659L100.086 40.336L99.7048 40.2913L97.3828 60.1029L96.9571 60.4393L93.9092 60.082L93.5728 59.6564L96.6094 33.7489L97.035 33.4125L100.464 33.8144L101.181 34.2847L111.813 55.6147L112.194 55.6593L114.516 35.8477L114.942 35.5114L117.99 35.8686L118.326 36.2942L115.289 62.2018ZM143.177 41.9106L142.751 42.2469L134.75 41.3091L134.325 41.6455L131.69 64.1241L131.264 64.4604L128.216 64.1032L127.88 63.6775L130.515 41.1989L130.178 40.7733L122.177 39.8355L121.841 39.4099L122.154 36.7429L122.579 36.4066L143.153 38.818L143.489 39.2436L143.177 41.9106ZM162.171 67.6967L161.745 68.033L159.459 67.7651L159.123 67.3395L157.507 61.3566L156.789 60.8863L146.503 59.6806L145.696 59.9723L142.74 65.4193L142.315 65.7556L140.029 65.4877L139.692 65.062L140.005 62.3951L151.873 40.2262L152.298 39.8899L155.727 40.2918L156.064 40.7174L162.483 65.0298L162.171 67.6967ZM156.474 56.9871L153.533 45.8281L153.152 45.7834L147.711 55.96L148.048 56.3856L156.048 57.3234L156.474 56.9871ZM176.192 70.1125C172.28 69.6541 169.354 68.0366 167.414 65.26C165.476 62.4581 164.747 59.0125 165.227 54.9231C165.706 50.8338 167.21 47.6629 169.74 45.4103C172.273 43.1323 175.495 42.2226 179.407 42.681C182.353 43.0264 184.678 44.0585 186.382 45.7773C188.089 47.4708 189.007 49.5225 189.137 51.9322L188.711 52.2686L185.663 51.9113L185.327 51.4857C185.084 50.0411 184.426 48.8439 183.353 47.8942C182.283 46.9191 180.834 46.3243 179.005 46.11C176.211 45.7825 173.942 46.4692 172.198 48.1702C170.456 49.8457 169.403 52.2456 169.036 55.3697C168.67 58.4938 169.139 61.085 170.443 63.1432C171.749 65.176 173.8 66.3561 176.594 66.6836C180.226 67.1093 182.705 65.7263 184.032 62.5345L184.458 62.1981L187.506 62.5554L187.842 62.981C187.15 65.3718 185.797 67.2473 183.784 68.6078C181.796 69.9712 179.265 70.4727 176.192 70.1125ZM212.939 50.0873L212.513 50.4236L204.512 49.4859L204.086 49.8222L201.452 72.3008L201.026 72.6371L197.978 72.2799L197.642 71.8542L200.277 49.3756L199.94 48.95L191.939 48.0122L191.603 47.5866L191.916 44.9196L192.341 44.5833L212.915 46.9947L213.251 47.4203L212.939 50.0873Z" fill="black"/>
</svg>
