<?xml version="1.0" encoding="UTF-8"?>
<svg id="Layer_1" xmlns="http://www.w3.org/2000/svg" version="1.1" viewBox="0 0 279 280">
  <!-- Generator: Adobe Illustrator 29.0.0, SVG Export Plug-In . SVG Version: 2.1.0 Build 186)  -->
  <defs>
    <style>
      .st0, .st1 {
        fill: #232323;
      }

      .st1 {
        stroke: #232323;
      }
    </style>
  </defs>
  <path class="st0" d="M230.7,250.3c-11.2,0-14.5-2.1-18.1-13.7l-44.4-143h-5.8l-.2,23.6,24.7,79.9h-53.5l-1.5,6.6h56.9l10.2,32.8c3.5,11.3,3.9,13.7-14.5,13.7v4.1h46.1v-4.1Z"/>
  <path class="st1" d="M211.3,7.3c-1-3.3-4.1-4.9-7.4-4-2.8.8-5.2,3.1-7.5,6.3-2.3,3.2-4.5,7.3-6.8,11.9l-11.2,3.4-33.3,10c-14.3,4.3-22.8,13.4-23.9,23.6-1.1,10.2,5.3,21.2,20.2,29.2l.4.2.2-.4,1.7-3.1.2-.4-.4-.2c-13.1-7.1-18.4-16.4-17.5-24.8.9-8.4,8-16.1,20.3-19.8l33.3-10h0c2.4-.7,4.9-1.5,7.2-2.3-5.5,12-13.7,32.2-22.6,54-5.2,12.8-10.6,26.1-15.9,38.8l-17,40.7-13.3,4c-33.8,10.2-52.6,26.7-61.9,43.6-9.3,17-9.2,34.4-5.3,46.4,2.5,8,6.1,14.5,10.9,18.5,4.8,4,10.8,5.4,17.9,3.2,10-3,24.5-14.5,41.3-47.9,12.9-23.1,21.6-46.6,32.5-82.2h0c10.9-36.8,22.5-75,37.9-120.5,3.5-1.3,6.8-2.5,9.6-3.8,2.8-1.3,5.1-2.5,6.5-3.7,3.5-2.7,4.9-7.2,3.9-10.6ZM106.2,220.5h0c-8.5,22-14.5,34.5-19.1,41.8-4.6,7.3-7.7,9.2-10.6,10.1-4.3,1.3-8.6,0-12.4-3.3-3.8-3.4-7.1-8.9-9.2-16-3.4-11.3-3.5-27.6,5.3-43.7,8.8-16,26.7-31.7,59.3-41.5l10-3-23.3,55.6Z"/>
</svg>