<svg width="279" height="280" viewBox="0 0 279 280" fill="none" xmlns="http://www.w3.org/2000/svg">
<path d="M235.796 248.13C224.606 248.13 221.327 245.981 217.661 234.452L173.288 91.4126H167.5L167.308 115.057L192.002 194.979H138.5L137 201.623H193.931L204.156 234.452C207.629 245.785 208.015 248.13 189.687 248.13V252.234H235.796V248.13Z" fill="#232323"/>
<path d="M192.019 24.5475C186.527 36.5181 178.3 56.7209 169.395 78.5875C164.188 91.3732 158.749 104.728 153.49 117.338L192.019 24.5475ZM192.019 24.5475C189.737 25.3715 187.194 26.1373 184.814 26.8542L184.802 26.8576L151.468 36.8967C139.21 40.5885 132.081 48.2845 131.179 56.6834C130.278 65.0715 135.562 74.4255 148.706 81.4924L149.146 81.7291L148.91 82.1694L147.235 85.2876L146.999 85.7285L146.558 85.4916C131.652 77.4771 125.273 66.4918 126.351 56.3162C127.429 46.1497 135.926 37.0477 150.219 32.7433L183.553 22.7042L194.725 19.3398C197.071 14.6714 199.289 10.5515 201.57 7.39283C203.875 4.1999 206.295 1.91399 209.051 1.08416C212.309 0.102742 215.445 1.78875 216.425 5.04901C217.45 8.45746 216.051 12.9792 212.534 15.6365C211.089 16.8625 208.793 18.1037 205.987 19.357C203.222 20.592 199.922 21.8561 196.372 23.141C180.96 68.6378 169.369 106.875 158.479 143.642L158.478 143.646C147.597 179.324 138.858 202.787 125.957 225.877C109.199 259.266 94.6732 270.742 84.6916 273.749C77.5516 275.899 71.5801 274.512 66.7705 270.526C61.9898 266.565 58.3964 260.071 55.88 252.068C52.0379 240.024 51.9082 222.605 61.2286 205.64C70.5543 188.665 89.3095 172.201 123.139 162.012L136.487 157.993L153.49 117.338L192.019 24.5475ZM111.351 218.25L111.351 218.25L111.347 218.262C102.823 240.211 96.8281 252.766 92.2296 260.052C87.6395 267.324 84.4817 269.282 81.6459 270.136C77.3559 271.428 73.0523 270.185 69.2555 266.818C65.4487 263.442 62.1741 257.943 60.029 250.811C56.6393 239.541 56.5111 223.164 65.3547 207.158C74.1934 191.161 92.0272 175.476 124.668 165.646L134.632 162.645L111.351 218.25Z" fill="#232323" stroke="#232323"/>
</svg>
