<svg width="378" height="253" viewBox="0 0 378 253" fill="none" xmlns="http://www.w3.org/2000/svg">
<path d="M264.098 179.546C296.884 143.211 317.333 121.41 350.964 85.582L352.654 87.272C316.826 125.466 296.546 147.436 261.901 186.137H241.79L321.22 93.187L320.375 92.511C280.66 131.888 264.943 141.352 257.507 141.352C253.62 141.352 250.916 139.493 250.916 133.578C250.916 123.438 258.521 102.482 274.914 85.582C293.504 66.147 318.347 54.148 330.008 54.148C337.106 54.148 339.472 58.542 339.472 63.443C339.472 66.823 338.458 70.541 336.599 74.597L336.937 74.766L354.851 53.81L356.879 55.331L264.098 179.546ZM257.507 138.648C264.605 138.648 282.519 127.156 332.205 77.132C335.585 71.048 336.768 66.485 336.768 63.105C336.768 59.556 335.247 56.852 331.698 56.852C325.276 56.852 316.319 61.753 285.899 93.187C260.38 119.72 253.958 130.367 253.958 135.437C253.958 137.634 255.141 138.648 257.507 138.648Z" fill="#232323"/>
<path d="M260.063 101.299C265.471 95.553 270.541 90.145 274.935 85.582L276.625 87.272C272.231 91.835 266.992 97.243 261.753 102.82C233.53 132.902 219.334 143.042 212.405 143.042C209.701 143.042 208.011 141.183 208.011 137.296C208.011 128.677 214.433 111.777 225.587 96.398L228.291 92.849L227.953 92.511C188.238 131.888 172.521 141.352 165.085 141.352C161.198 141.352 158.494 139.493 158.494 133.578C158.494 123.438 166.099 102.482 182.492 85.582C201.082 66.147 225.925 54.148 237.248 54.148C243.67 54.148 245.36 58.711 245.36 62.598C245.36 65.978 244.346 69.696 241.98 74.428L242.487 74.935C248.571 67.837 254.486 61.415 260.232 55.5H280.174C262.429 72.062 248.233 86.765 236.741 100.623C222.207 118.199 211.391 133.071 211.391 138.648C211.391 139.831 211.898 140.338 213.25 140.338C217.475 140.338 233.192 129.691 260.063 101.299ZM165.085 138.648C172.014 138.648 188.576 128.17 233.53 83.385C240.459 73.752 242.656 66.823 242.656 62.26C242.656 59.218 241.135 56.852 237.755 56.852C231.84 56.852 223.897 61.753 193.477 93.187C167.958 119.72 161.536 130.367 161.536 135.437C161.536 137.634 162.719 138.648 165.085 138.648Z" fill="#232323"/>
<path d="M227.753 0.743988C230.288 0.743988 232.147 2.603 232.147 5.13799C232.147 7.84199 230.119 10.884 226.908 12.067C224.204 13.25 218.796 13.757 212.543 14.095C189.897 45.867 172.152 74.935 155.083 100.961C143.253 119.044 125.846 140.169 110.467 155.041C89.6797 177.011 75.8217 182.419 67.5407 182.419C55.7107 182.419 50.8097 172.786 50.6407 159.266C50.3027 138.986 66.3577 105.524 123.48 105.524H134.972L157.787 77.808C177.222 54.148 199.023 26.432 210.008 14.095C207.811 14.264 205.276 14.264 202.91 14.264H174.687C153.731 14.264 144.605 31.671 161.843 48.909L159.815 50.937C140.549 31.671 150.689 11.56 174.687 11.56H202.91H212.543C218.458 5.30699 223.359 0.743988 227.753 0.743988ZM101.51 146.253L133.113 107.89H123.818C68.3857 107.89 53.3447 140 53.3447 159.266C53.3447 171.434 58.4147 179.715 66.0197 179.715C71.0897 179.715 78.0187 176.335 101.51 146.253Z" fill="#232323"/>
<path d="M329.047 164.04V177H329.527C335.287 168.52 342.327 162.12 350.967 162.12C362.487 162.12 366.647 170.76 366.647 183.56V233.64C366.647 243.56 367.767 245.64 377.207 245.64V249H347.607V245.64C356.727 245.64 357.847 243.56 357.847 233.64V183.56C357.847 174.12 354.807 169.32 348.247 169.32C341.367 169.32 334.647 175.4 329.047 182.44V233.64C329.047 243.56 330.167 245.64 339.127 245.64V249H309.687V245.64C318.967 245.64 320.087 243.56 320.087 233.64V180.68C320.087 170.76 320.407 169 311.927 172.84L310.487 169.8L327.127 162.12L329.047 164.04Z" fill="#232323"/>
<path d="M298.818 214.92H302.178C299.618 240.04 289.218 252.2 276.738 252.2C259.938 252.2 250.818 233.96 250.818 207.4C250.818 182.76 260.738 162.12 278.178 162.12C293.058 162.12 301.858 178.28 301.858 202.12H260.258V205.64C260.258 226.28 267.138 244.04 278.978 244.04C286.818 244.04 294.818 236.68 298.818 214.92ZM277.698 167.56C267.458 167.56 262.018 180.68 260.578 196.68H292.418C292.418 182.12 288.578 167.56 277.698 167.56Z" fill="#232323"/>
<path d="M234.912 214.92H238.272C235.712 240.04 225.312 252.2 212.832 252.2C196.032 252.2 186.912 233.96 186.912 207.4C186.912 182.76 196.832 162.12 214.272 162.12C229.152 162.12 237.952 178.28 237.952 202.12H196.352V205.64C196.352 226.28 203.232 244.04 215.072 244.04C222.912 244.04 230.912 236.68 234.912 214.92ZM213.792 167.56C203.552 167.56 198.112 180.68 196.672 196.68H228.512C228.512 182.12 224.672 167.56 213.792 167.56Z" fill="#232323"/>
<path d="M168.734 233.64C168.734 243.56 169.854 245.64 179.134 245.64V249H149.374V245.64C158.654 245.64 159.774 243.56 159.774 233.64V136.36C159.774 126.28 160.094 124.52 151.614 128.52L150.174 125.32L166.814 117.8L168.734 119.56V233.64Z" fill="#232323"/>
<path d="M134.047 233.64C134.047 243.56 135.167 245.64 144.447 245.64V249H114.687V245.64C123.967 245.64 125.087 243.56 125.087 233.64V180.68C125.087 170.76 125.407 169 116.927 172.84L115.487 169.8L132.127 162.12L134.047 164.04V233.64Z" fill="#232323"/>
<path d="M93.3606 234.44C96.4006 243.88 99.1206 245.64 108.401 245.64V249H70.1606V245.64C85.3606 245.64 85.0406 243.72 82.1606 234.44L73.6806 207.56H29.2006L20.8806 234.44C18.0006 243.72 17.6806 245.64 33.0406 245.64V249H0.240631V245.64C9.52063 245.64 12.2406 243.88 15.2806 234.44L51.7606 117.32H56.5606L93.3606 234.44ZM30.8006 202.12H72.0806L51.6006 136.68H51.1206L30.8006 202.12Z" fill="#232323"/>
</svg>
