<svg width="214" height="74" viewBox="0 0 214 74" fill="none" xmlns="http://www.w3.org/2000/svg">
<rect x="0.500124" y="0.551511" width="212.951" height="72.5951" rx="3.85387" transform="rotate(-0.0142375 0.500124 0.551511)" fill="#D9D9D9" stroke="black"/>
<path d="M61.8775 17.2728C62.5104 17.2726 62.9746 17.7366 62.9747 18.3694C62.9749 19.0445 62.4688 19.804 61.6673 20.0995C60.9923 20.395 59.6423 20.5219 58.0812 20.6067C52.4298 28.5398 48.0016 35.7976 43.742 42.2959C40.7899 46.811 36.4456 52.0858 32.6072 55.7995C27.4192 61.2855 23.96 62.6364 21.8927 62.6369C18.9394 62.6377 17.7153 60.2332 17.6722 56.858C17.5866 51.7952 21.5926 43.4406 35.8528 43.437L38.7217 43.4363L44.4156 36.5157C49.266 30.6079 54.7068 23.6874 57.4484 20.6069C56.8999 20.6492 56.2671 20.6493 55.6764 20.6495L48.6307 20.6512C43.3991 20.6525 41.122 24.9987 45.4264 29.301L44.9202 29.8074C40.1094 24.9989 42.6395 19.9777 48.6305 19.9762L55.6763 19.9745L58.0811 19.9739C59.5573 18.4125 60.7806 17.273 61.8775 17.2728ZM30.3706 53.6062L38.2578 44.0271L35.9373 44.0277C22.099 44.0311 18.3461 52.0481 18.3473 56.8578C18.348 59.8955 19.6142 61.9625 21.5128 61.962C22.7785 61.9617 24.5081 61.1175 30.3706 53.6062ZM69.95 42.3738C71.2997 40.939 72.565 39.5886 73.6617 38.4492L74.0837 38.871C72.987 40.0104 71.6795 41.3608 70.3719 42.7534C63.3281 50.265 59.7848 52.7973 58.055 52.7977C57.3799 52.7979 56.9579 52.3339 56.9577 51.3635C56.9571 49.2118 58.5593 44.9924 61.3429 41.1524L62.0177 40.2663L61.9333 40.1819C52.0211 50.0146 48.098 52.3783 46.2417 52.3787C45.2713 52.379 44.5961 51.915 44.5958 50.4384C44.5951 47.907 46.4924 42.675 50.5838 38.4549C55.2235 33.6019 61.4246 30.6049 64.2514 30.6042C65.8546 30.6038 66.2768 31.7428 66.277 32.7132C66.2772 33.557 66.0243 34.4852 65.434 35.6667L65.5606 35.7932C67.079 34.0209 68.5552 32.4173 69.9893 30.9403L74.9677 30.9391C70.5388 35.0748 66.9958 38.7462 64.1277 42.2065C60.5004 46.5951 57.8012 50.3085 57.8016 51.7008C57.8016 51.9961 57.9282 52.1227 58.2657 52.1226C59.3205 52.1223 63.2435 49.4634 69.95 42.3738ZM46.2415 51.7037C47.9713 51.7033 52.1052 49.0864 63.325 37.9033C65.0542 35.498 65.6022 33.7681 65.602 32.629C65.6018 31.8696 65.2219 31.279 64.3781 31.2792C62.9015 31.2796 60.9188 32.5036 53.3266 40.3528C46.9575 46.9782 45.355 49.6366 45.3553 50.9023C45.3554 51.4508 45.6508 51.7038 46.2415 51.7037ZM70.9621 61.9075C79.1447 52.8346 84.2483 47.3909 92.6419 38.4445L93.0639 38.8663C84.122 48.4034 79.0606 53.8894 70.414 63.5531L65.3934 63.5543L85.217 40.3449L85.006 40.1762C75.0938 50.0089 71.1707 52.3725 69.3143 52.373C68.3439 52.3732 67.6688 51.9093 67.6684 50.4327C67.6678 47.9013 69.565 42.6692 73.6564 38.4492C78.2961 33.5962 84.4973 30.5992 87.4084 30.5984C89.1804 30.598 89.7713 31.6948 89.7716 32.9183C89.7718 33.7621 89.5189 34.6904 89.0551 35.703L89.1395 35.7452L93.6103 30.5125L94.1167 30.8921L70.9621 61.9075ZM69.3141 51.6979C71.0861 51.6975 75.5576 48.8275 87.9583 36.3362C88.8017 34.8171 89.0968 33.6779 89.0966 32.8341C89.0964 31.9481 88.7165 31.2732 87.8305 31.2734C86.2273 31.2738 83.9915 32.4978 76.3992 40.3471C70.0302 46.9725 68.4276 49.6309 68.428 50.8966C68.4281 51.445 68.7235 51.6981 69.3141 51.6979Z" fill="black"/>
<path d="M118.609 21.1013L127.804 50.0179C128.563 52.3743 129.282 52.8135 131.799 52.8129L131.799 53.6517L122.053 53.6541L122.052 52.8153C125.927 52.8144 125.847 52.3351 125.127 50.0185L122.929 42.9491L111.825 42.9519L109.589 50.0224C108.871 52.3393 108.791 52.8186 112.666 52.8177L112.666 53.6565L104.278 53.6586L104.278 52.8197C106.754 52.8191 107.433 52.3796 108.191 50.0227L117.331 21.1016L118.609 21.1013ZM117.292 25.4554L112.224 41.6736L122.529 41.6711L117.452 25.4554L117.292 25.4554ZM135.485 27.2084C134.367 27.2087 133.528 26.3701 133.528 25.3316C133.527 24.2531 134.366 23.454 135.484 23.4537C136.563 23.4535 137.402 24.2521 137.402 25.3306C137.402 26.3691 136.564 27.2081 135.485 27.2084ZM136.965 32.4006L136.969 49.8159C136.97 52.2924 137.249 52.8116 139.606 52.811L139.606 53.6498L132.137 53.6516L132.137 52.8128C134.453 52.8122 134.773 52.2929 134.772 49.8164L134.769 36.5153C134.768 33.9989 134.768 33.5595 132.531 34.4389L132.212 33.6401L135.127 32.481L136.485 31.9614L136.965 32.4006ZM146.124 21.2942L146.131 49.8136C146.131 52.2901 146.411 52.8093 148.728 52.8087L148.728 53.6475L141.259 53.6494L141.259 52.8106C143.615 52.81 143.895 52.2906 143.894 49.8142L143.888 25.4488C143.887 22.9723 143.927 22.5329 141.611 23.612L141.251 22.8132L144.286 21.4544L145.684 20.8549L146.124 21.2942ZM162.694 45.216L163.533 45.2158C162.896 51.5669 160.3 54.2837 157.105 54.2845C152.99 54.2855 150.593 49.7726 150.591 43.4615C150.589 37.1106 153.065 31.9573 157.259 31.9562C161.093 31.9553 163.291 35.989 163.293 41.9405L152.907 41.9431L152.908 42.702C152.909 47.9346 154.667 52.248 157.823 52.2472C159.66 52.2468 161.777 50.6885 162.694 45.216ZM157.299 33.3143C154.703 33.3149 153.345 36.6705 152.987 40.585L160.936 40.583C160.935 36.9482 159.975 33.3136 157.299 33.3143ZM178.648 45.2121L179.487 45.2118C178.849 51.563 176.254 54.2798 173.058 54.2806C168.944 54.2816 166.547 49.7686 166.545 43.4576C166.543 37.1066 169.019 31.9533 173.213 31.9523C177.047 31.9513 179.245 35.985 179.247 41.9366L168.861 41.9391L168.861 42.6981C168.863 47.9306 170.621 52.2441 173.777 52.2433C175.614 52.2428 177.731 50.6845 178.648 45.2121ZM173.253 33.3103C170.657 33.311 169.299 36.6665 168.941 40.5811L176.89 40.5791C176.889 36.9443 175.929 33.3097 173.253 33.3103ZM181.794 53.6393L181.793 52.8005C184.07 52.7999 184.39 52.2806 184.389 49.8041L184.386 36.503C184.385 33.9866 184.425 33.5472 182.068 34.5064L181.749 33.7076L186.062 31.9491L186.582 32.3883L186.582 35.7435L186.702 35.7435C188.419 33.5063 190.017 31.9481 192.413 31.9475C195.249 31.9468 196.448 34.1034 196.449 37.3388L196.452 49.8011C196.452 52.2776 196.732 52.7968 199.009 52.7962L199.009 53.635L191.739 53.6368L191.739 52.798C193.976 52.7975 194.256 52.2781 194.255 49.8016L194.252 37.4592C194.251 35.0626 193.252 33.9444 191.615 33.9449C189.697 33.9453 188.18 35.2638 186.583 37.1016L186.586 49.8036C186.586 52.28 186.866 52.7992 189.103 52.7987L189.103 53.6375L181.794 53.6393Z" fill="black"/>
</svg>
