<svg width="144" height="105" viewBox="0 0 144 105" fill="none" xmlns="http://www.w3.org/2000/svg">
<rect x="0.609773" y="0.358018" width="127.756" height="73.1049" rx="4.5" transform="matrix(0.967791 -0.251754 0.251755 0.967791 -0.0704928 32.58)" fill="#D9D9D9" stroke="black"/>
<path d="M49.8649 50.5578C50.5087 53.0328 50.1996 55.0951 48.9375 56.7446C47.7002 58.3877 45.8069 59.5408 43.2577 60.204L35.4615 62.232L35.1869 62.6998L37.8909 73.0947L37.6162 73.5625L34.6463 74.3351L34.1785 74.0604L27.6115 48.8157L27.8862 48.3479L39.3948 45.3541C42.0925 44.6524 44.3416 44.7147 46.142 45.5411C47.9672 46.3611 49.2082 48.0334 49.8649 50.5578ZM45.8224 54.9785C46.4223 54.1355 46.5323 52.9838 46.1524 51.5236C45.7726 50.0633 45.1186 49.1236 44.1904 48.7045C43.2557 48.2606 41.9469 48.2575 40.2639 48.6953L32.4678 50.7234L32.1931 51.1912L34.1246 58.6161L34.5924 58.8908L42.3885 56.8627C44.0715 56.4249 45.2162 55.7969 45.8224 54.9785ZM75.03 63.4335L74.7553 63.9013L58.7917 68.054L58.3239 67.7794L51.757 42.5347L52.0316 42.0668L55.0016 41.2942L55.4694 41.5689L61.1672 63.4724L61.635 63.7471L73.8861 60.5601L74.3539 60.8348L75.03 63.4335ZM98.7737 57.2569L98.499 57.7247L96.2716 58.3042L95.8037 58.0295L92.1277 53.0403L91.2886 52.8622L81.265 55.4697L80.6191 56.0341L79.8402 62.1822L79.5655 62.65L77.338 63.2295L76.8702 62.9548L76.1942 60.3561L79.2132 35.3923L79.4878 34.9245L82.829 34.0553L83.2969 34.33L98.0977 54.6582L98.7737 57.2569ZM89.5804 49.3429L82.7926 40.0103L82.4214 40.1069L81.0417 51.5641L81.5096 51.8388L89.3057 49.8107L89.5804 49.3429ZM111.828 29.6826L107.315 44.3331L109.923 54.3567L109.648 54.8245L106.678 55.5971L106.21 55.3224L103.603 45.2988L92.5231 34.7045L91.8471 32.1058L92.1218 31.638L93.6067 31.2517L94.4458 31.4298L104.025 40.8288L104.768 40.6357L108.553 27.7599L109.199 27.1956L110.684 26.8093L111.152 27.0839L111.828 29.6826Z" fill="black"/>
</svg>
