<svg width="360" height="397" viewBox="0 0 360 397" fill="none" xmlns="http://www.w3.org/2000/svg">
<path d="M107.226 152.708L113.022 153.328C114.615 153.505 116.186 152.818 117.137 151.534C118.133 150.205 118.332 148.455 117.668 146.926L115.478 141.965C114.814 140.459 115.013 138.687 116.009 137.358L217.884 2.19839C219.388 0.182741 222.242 -0.215959 224.255 1.29024L357.611 101.674C359.624 103.202 359.735 105.838 358.208 107.854L301.618 182.942C300.468 184.449 298.521 185.091 296.707 184.559L263.457 174.769C261.621 174.237 259.652 174.88 258.523 176.43L253.457 183.252C252.418 184.648 252.263 186.531 253.081 188.081L270.47 221.373C271.288 222.945 270.425 224.341 269.341 225.758L229.366 278.808C228.304 280.181 226.578 280.845 224.897 280.513L188.815 273.204C187.089 272.849 185.319 273.536 184.28 274.931L179.612 281.133C178.483 282.617 178.395 284.633 179.346 286.228L197.487 316.396C198.438 317.991 198.35 320.007 197.221 321.491L141.384 395.56C139.857 397.576 137.003 397.975 135.012 396.446L2.14329 296.04C0.130119 294.512 -0.26811 291.655 1.25836 289.661L103.178 154.457C104.151 153.173 105.7 152.508 107.293 152.663L107.226 152.708Z" fill="#A0CDD5"/>
</svg>
