<svg width="305" height="443" viewBox="0 0 305 443" fill="none" xmlns="http://www.w3.org/2000/svg">
<path d="M266.203 286.532L103.38 229.474C101.986 228.876 101.013 227.591 100.792 226.063L72.6295 3.6769C72.2756 1.12965 69.82 -0.553746 67.3201 0.0221542L4.27034 13.6001C2.12444 14.0874 0.686459 16.1031 0.885564 18.2959L41.4586 439.367C41.6799 441.605 43.5603 443.332 45.8168 443.332L300.073 443.377C302.971 443.377 305.073 440.586 304.277 437.795L268.659 289.345C268.305 288.083 267.398 287.042 266.181 286.532H266.203ZM135.613 375.465L130.259 327.931C129.883 324.675 132.737 321.972 135.945 322.504L195.322 332.228C197.534 332.582 199.216 334.399 199.437 336.614L203.574 378.521C203.884 381.556 201.362 384.147 198.309 383.926L140.148 379.806C137.781 379.629 135.856 377.79 135.591 375.443L135.613 375.465Z" fill="#A0CDD5"/>
</svg>
