<svg width="288" height="211" viewBox="0 0 288 211" fill="none" xmlns="http://www.w3.org/2000/svg">
<path d="M12.4661 5.06165L0.586187 149.679C0.431328 151.584 1.58171 153.334 3.37365 153.932L172.126 210.193C173.94 210.791 175.931 210.06 176.926 208.421L286.699 23.5569C288.137 21.1868 286.854 18.108 284.177 17.4435L216.991 0.897449C215.243 0.476599 213.407 1.2297 212.5 2.7802L143.057 119.023C142.083 120.64 140.158 121.393 138.367 120.84L81.6881 104.382C79.7855 103.806 78.5688 101.968 78.79 100.019L87.7718 7.476C88.0373 5.0838 86.179 2.97955 83.7897 2.93525L16.6473 1.34045C14.4793 1.29615 12.6652 2.93525 12.4661 5.0838V5.06165Z" fill="#A0CDD5"/>
</svg>
