<svg width="172" height="106" viewBox="0 0 172 106" fill="none" xmlns="http://www.w3.org/2000/svg">
<rect x="15.5008" y="0.592253" width="158.62" height="73.1049" rx="4.5" transform="rotate(11.7672 15.5008 0.592253)" fill="#232323" stroke="#D9D9D9"/>
<path d="M65.4828 36.5501L54.7021 58.2063L54.2483 58.5037L50.8685 57.7996L50.5712 57.3458L49.0843 36.2688L48.7087 36.1906L38.9294 54.9207L38.4757 55.218L35.0958 54.5139L34.7985 54.0602L33.5619 29.9006L34.1095 27.2718L34.5633 26.9745L36.8165 27.4439L37.1138 27.8977L38.0061 48.0671L38.3817 48.1454L48.0045 30.1663L48.4582 29.869L51.8381 30.5731L52.1354 31.0268L53.7788 51.3528L54.1543 51.431L63.026 33.2955L63.4798 32.9982L65.7331 33.4676L66.0304 33.9213L65.4828 36.5501ZM67.2593 57.7267C65.5777 54.7641 65.1567 51.2675 65.9964 47.2367C66.8361 43.2059 68.6156 40.1807 71.3351 38.1611C74.0598 36.1164 77.3499 35.4957 81.2055 36.2989C85.061 37.102 87.8296 38.9849 89.5112 41.9474C91.1981 44.8849 91.6217 48.3691 90.782 52.3999C89.9423 56.4306 88.1601 59.4684 85.4354 61.513C82.716 63.5326 79.4285 64.1408 75.5729 63.3377C71.7174 62.5345 68.9462 60.6642 67.2593 57.7267ZM73.5383 41.1278C71.6554 42.6425 70.3933 44.9396 69.7518 48.019C69.1103 51.0984 69.3477 53.7209 70.4639 55.8865C71.5853 58.027 73.523 59.3841 76.277 59.9578C79.0309 60.5315 81.3494 60.061 83.2322 58.5463C85.1203 57.0066 86.3851 54.697 87.0266 51.6176C87.6681 48.5381 87.4281 45.9282 86.3067 43.7876C85.1904 41.622 83.2553 40.2524 80.5014 39.6787C77.7474 39.105 75.4264 39.5881 73.5383 41.1278ZM111.541 54.1773C112.453 53.688 113.062 52.7048 113.37 51.2277C113.678 49.7506 113.509 48.6182 112.863 47.8307C112.222 47.018 111.051 46.4344 109.348 46.0798L101.462 44.437L101.008 44.7343L99.4438 52.245L99.7411 52.6988L107.627 54.3416C109.33 54.6963 110.634 54.6415 111.541 54.1773ZM117.125 52.01C116.708 54.0129 115.876 55.4983 114.63 56.4664C113.383 57.4345 111.842 57.9363 110.006 57.9718L109.928 58.3473L113.464 67.7044L112.917 70.3332L112.463 70.6305L110.961 70.3176L110.288 69.7856L105.719 57.8623L105.046 57.3303L99.037 56.0787L98.5833 56.376L96.3928 66.8911L95.9391 67.1884L92.9347 66.5626L92.6374 66.1088L97.9571 40.5721L98.4108 40.2748L110.053 42.6999C112.781 43.2684 114.769 44.3225 116.016 45.8621C117.287 47.407 117.657 49.4563 117.125 52.01ZM137.324 75.4175L136.87 75.7148L135.368 75.4019L134.695 74.8699L128.107 61.3507L127.732 61.2724L123.648 63.9482L123.116 64.6211L121.551 72.1319L121.097 72.4292L118.093 71.8033L117.796 71.3496L123.115 45.8129L123.569 45.5156L126.573 46.1414L126.871 46.5952L124.289 58.988L124.665 59.0662L139.639 49.255L140.468 49.0359L141.595 49.2706L141.892 49.7244L141.345 52.3532L131.362 58.894L131.283 59.2695L137.871 72.7887L137.324 75.4175Z" fill="#D9D9D9"/>
</svg>
